<svg xmlns="http://www.w3.org/2000/svg" xmlns:xlink="http://www.w3.org/1999/xlink" width="170" zoomAndPan="magnify" viewBox="0 0 127.5 77.249999" height="103" preserveAspectRatio="xMidYMid meet" version="1.0"><defs><g/></defs><g fill="#ffffff" fill-opacity="1"><g transform="translate(5.553709, 47.871389)"><g><path d="M 11.859375 0.296875 C 9.804688 0.296875 8.007812 -0.15625 6.46875 -1.0625 C 4.9375 -1.96875 3.742188 -3.238281 2.890625 -4.875 C 2.046875 -6.507812 1.625 -8.4375 1.625 -10.65625 C 1.625 -12.320312 1.863281 -13.820312 2.34375 -15.15625 C 2.832031 -16.5 3.523438 -17.648438 4.421875 -18.609375 C 5.316406 -19.566406 6.394531 -20.300781 7.65625 -20.8125 C 8.914062 -21.320312 10.316406 -21.578125 11.859375 -21.578125 C 13.929688 -21.578125 15.734375 -21.128906 17.265625 -20.234375 C 18.796875 -19.335938 19.984375 -18.070312 20.828125 -16.4375 C 21.671875 -14.8125 22.09375 -12.894531 22.09375 -10.6875 C 22.09375 -9.019531 21.847656 -7.507812 21.359375 -6.15625 C 20.878906 -4.8125 20.191406 -3.65625 19.296875 -2.6875 C 18.410156 -1.71875 17.335938 -0.976562 16.078125 -0.46875 C 14.816406 0.0390625 13.410156 0.296875 11.859375 0.296875 Z M 11.859375 -3.015625 C 13.171875 -3.015625 14.285156 -3.316406 15.203125 -3.921875 C 16.117188 -4.523438 16.820312 -5.398438 17.3125 -6.546875 C 17.800781 -7.691406 18.046875 -9.0625 18.046875 -10.65625 C 18.046875 -13.070312 17.507812 -14.941406 16.4375 -16.265625 C 15.363281 -17.597656 13.835938 -18.265625 11.859375 -18.265625 C 10.578125 -18.265625 9.472656 -17.96875 8.546875 -17.375 C 7.617188 -16.78125 6.90625 -15.914062 6.40625 -14.78125 C 5.914062 -13.644531 5.671875 -12.269531 5.671875 -10.65625 C 5.671875 -8.257812 6.210938 -6.382812 7.296875 -5.03125 C 8.390625 -3.6875 9.910156 -3.015625 11.859375 -3.015625 Z M 11.859375 -3.015625 "/></g></g></g><g fill="#ffffff" fill-opacity="1"><g transform="translate(30.09187, 47.871389)"><g><path d="M 7 0.296875 C 5.332031 0.296875 4.078125 -0.175781 3.234375 -1.125 C 2.390625 -2.082031 1.96875 -3.488281 1.96875 -5.34375 L 1.96875 -19.625 C 1.96875 -20.25 2.125 -20.722656 2.4375 -21.046875 C 2.757812 -21.367188 3.222656 -21.53125 3.828125 -21.53125 C 4.429688 -21.53125 4.898438 -21.367188 5.234375 -21.046875 C 5.566406 -20.722656 5.734375 -20.25 5.734375 -19.625 L 5.734375 -5.53125 C 5.734375 -4.601562 5.925781 -3.914062 6.3125 -3.46875 C 6.707031 -3.03125 7.269531 -2.8125 8 -2.8125 C 8.15625 -2.8125 8.300781 -2.816406 8.4375 -2.828125 C 8.582031 -2.835938 8.726562 -2.851562 8.875 -2.875 C 9.15625 -2.90625 9.34375 -2.828125 9.4375 -2.640625 C 9.539062 -2.453125 9.59375 -2.066406 9.59375 -1.484375 C 9.59375 -0.972656 9.492188 -0.578125 9.296875 -0.296875 C 9.097656 -0.015625 8.765625 0.15625 8.296875 0.21875 C 8.097656 0.226562 7.882812 0.242188 7.65625 0.265625 C 7.4375 0.285156 7.21875 0.296875 7 0.296875 Z M 7 0.296875 "/></g></g></g><g fill="#ffffff" fill-opacity="1"><g transform="translate(40.565152, 47.871389)"><g><path d="M 6.828125 0.296875 C 5.753906 0.296875 4.800781 0.09375 3.96875 -0.3125 C 3.132812 -0.726562 2.476562 -1.285156 2 -1.984375 C 1.53125 -2.691406 1.296875 -3.488281 1.296875 -4.375 C 1.296875 -5.457031 1.578125 -6.316406 2.140625 -6.953125 C 2.703125 -7.585938 3.617188 -8.046875 4.890625 -8.328125 C 6.160156 -8.609375 7.859375 -8.75 9.984375 -8.75 L 11.5 -8.75 L 11.5 -6.578125 L 10.015625 -6.578125 C 8.773438 -6.578125 7.78125 -6.515625 7.03125 -6.390625 C 6.289062 -6.273438 5.765625 -6.070312 5.453125 -5.78125 C 5.140625 -5.488281 4.984375 -5.082031 4.984375 -4.5625 C 4.984375 -3.894531 5.210938 -3.347656 5.671875 -2.921875 C 6.140625 -2.503906 6.785156 -2.296875 7.609375 -2.296875 C 8.273438 -2.296875 8.863281 -2.453125 9.375 -2.765625 C 9.882812 -3.078125 10.289062 -3.503906 10.59375 -4.046875 C 10.894531 -4.585938 11.046875 -5.210938 11.046875 -5.921875 L 11.046875 -9.390625 C 11.046875 -10.390625 10.820312 -11.109375 10.375 -11.546875 C 9.9375 -11.992188 9.195312 -12.21875 8.15625 -12.21875 C 7.570312 -12.21875 6.941406 -12.144531 6.265625 -12 C 5.585938 -11.863281 4.878906 -11.628906 4.140625 -11.296875 C 3.753906 -11.109375 3.414062 -11.054688 3.125 -11.140625 C 2.832031 -11.222656 2.601562 -11.390625 2.4375 -11.640625 C 2.28125 -11.890625 2.203125 -12.164062 2.203125 -12.46875 C 2.203125 -12.769531 2.28125 -13.066406 2.4375 -13.359375 C 2.601562 -13.648438 2.878906 -13.863281 3.265625 -14 C 4.191406 -14.382812 5.082031 -14.65625 5.9375 -14.8125 C 6.789062 -14.976562 7.566406 -15.0625 8.265625 -15.0625 C 9.710938 -15.0625 10.90625 -14.835938 11.84375 -14.390625 C 12.78125 -13.953125 13.476562 -13.285156 13.9375 -12.390625 C 14.40625 -11.492188 14.640625 -10.34375 14.640625 -8.9375 L 14.640625 -1.6875 C 14.640625 -1.0625 14.488281 -0.582031 14.1875 -0.25 C 13.882812 0.0703125 13.453125 0.234375 12.890625 0.234375 C 12.328125 0.234375 11.890625 0.0703125 11.578125 -0.25 C 11.265625 -0.582031 11.109375 -1.0625 11.109375 -1.6875 L 11.109375 -3.140625 L 11.34375 -3.140625 C 11.207031 -2.429688 10.929688 -1.820312 10.515625 -1.3125 C 10.109375 -0.800781 9.59375 -0.40625 8.96875 -0.125 C 8.34375 0.15625 7.628906 0.296875 6.828125 0.296875 Z M 6.828125 0.296875 "/></g></g></g><g fill="#ffffff" fill-opacity="1"><g transform="translate(57.919962, 47.871389)"><g><path d="M 0.15625 5.703125 C -0.289062 5.742188 -0.65625 5.675781 -0.9375 5.5 C -1.21875 5.332031 -1.410156 5.117188 -1.515625 4.859375 C -1.628906 4.597656 -1.664062 4.328125 -1.625 4.046875 C -1.582031 3.765625 -1.46875 3.515625 -1.28125 3.296875 C -1.09375 3.085938 -0.835938 2.972656 -0.515625 2.953125 C 0.390625 2.878906 1.046875 2.625 1.453125 2.1875 C 1.867188 1.757812 2.078125 1.101562 2.078125 0.21875 L 2.078125 -13.09375 C 2.078125 -13.71875 2.242188 -14.191406 2.578125 -14.515625 C 2.910156 -14.835938 3.378906 -15 3.984375 -15 C 4.585938 -15 5.050781 -14.835938 5.375 -14.515625 C 5.695312 -14.191406 5.859375 -13.71875 5.859375 -13.09375 L 5.859375 -0.125 C 5.859375 1.164062 5.648438 2.222656 5.234375 3.046875 C 4.828125 3.867188 4.203125 4.488281 3.359375 4.90625 C 2.523438 5.332031 1.457031 5.597656 0.15625 5.703125 Z M 3.953125 -17.78125 C 3.242188 -17.78125 2.691406 -17.957031 2.296875 -18.3125 C 1.910156 -18.664062 1.71875 -19.148438 1.71875 -19.765625 C 1.71875 -20.410156 1.910156 -20.90625 2.296875 -21.25 C 2.691406 -21.59375 3.242188 -21.765625 3.953125 -21.765625 C 4.679688 -21.765625 5.234375 -21.59375 5.609375 -21.25 C 5.992188 -20.90625 6.1875 -20.410156 6.1875 -19.765625 C 6.1875 -19.148438 5.992188 -18.664062 5.609375 -18.3125 C 5.234375 -17.957031 4.679688 -17.78125 3.953125 -17.78125 Z M 3.953125 -17.78125 "/></g></g></g><g fill="#ffffff" fill-opacity="1"><g transform="translate(66.582317, 47.871389)"><g><path d="M 3.828125 0.21875 C 3.222656 0.21875 2.757812 0.0351562 2.4375 -0.328125 C 2.125 -0.691406 1.96875 -1.195312 1.96875 -1.84375 L 1.96875 -12.921875 C 1.96875 -13.585938 2.125 -14.09375 2.4375 -14.4375 C 2.757812 -14.789062 3.222656 -14.96875 3.828125 -14.96875 C 4.429688 -14.96875 4.898438 -14.789062 5.234375 -14.4375 C 5.566406 -14.09375 5.734375 -13.585938 5.734375 -12.921875 L 5.734375 -1.84375 C 5.734375 -1.195312 5.570312 -0.691406 5.25 -0.328125 C 4.925781 0.0351562 4.453125 0.21875 3.828125 0.21875 Z M 3.828125 -17.78125 C 3.128906 -17.78125 2.582031 -17.957031 2.1875 -18.3125 C 1.789062 -18.664062 1.59375 -19.148438 1.59375 -19.765625 C 1.59375 -20.410156 1.789062 -20.90625 2.1875 -21.25 C 2.582031 -21.59375 3.128906 -21.765625 3.828125 -21.765625 C 4.554688 -21.765625 5.109375 -21.59375 5.484375 -21.25 C 5.867188 -20.90625 6.0625 -20.410156 6.0625 -19.765625 C 6.0625 -19.148438 5.867188 -18.664062 5.484375 -18.3125 C 5.109375 -17.957031 4.554688 -17.78125 3.828125 -17.78125 Z M 3.828125 -17.78125 "/></g></g></g><g fill="#ffffff" fill-opacity="1"><g transform="translate(75.123938, 47.871389)"><g><path d="M 3.78125 0.15625 C 3.09375 0.15625 2.539062 -0.0507812 2.125 -0.46875 C 1.71875 -0.894531 1.515625 -1.441406 1.515625 -2.109375 C 1.515625 -2.753906 1.71875 -3.28125 2.125 -3.6875 C 2.539062 -4.101562 3.09375 -4.3125 3.78125 -4.3125 C 4.476562 -4.3125 5.019531 -4.101562 5.40625 -3.6875 C 5.800781 -3.28125 6 -2.753906 6 -2.109375 C 6 -1.441406 5.800781 -0.894531 5.40625 -0.46875 C 5.019531 -0.0507812 4.476562 0.15625 3.78125 0.15625 Z M 3.78125 0.15625 "/></g></g></g><g fill="#ffffff" fill-opacity="1"><g transform="translate(83.454289, 47.871389)"><g><path d="M 8.78125 0.296875 C 7.226562 0.296875 5.878906 -0.015625 4.734375 -0.640625 C 3.585938 -1.273438 2.703125 -2.175781 2.078125 -3.34375 C 1.453125 -4.519531 1.140625 -5.890625 1.140625 -7.453125 C 1.140625 -8.640625 1.316406 -9.703125 1.671875 -10.640625 C 2.023438 -11.578125 2.535156 -12.367188 3.203125 -13.015625 C 3.867188 -13.671875 4.671875 -14.175781 5.609375 -14.53125 C 6.554688 -14.882812 7.613281 -15.0625 8.78125 -15.0625 C 9.445312 -15.0625 10.164062 -14.96875 10.9375 -14.78125 C 11.71875 -14.601562 12.445312 -14.304688 13.125 -13.890625 C 13.445312 -13.679688 13.660156 -13.4375 13.765625 -13.15625 C 13.867188 -12.875 13.890625 -12.585938 13.828125 -12.296875 C 13.765625 -12.003906 13.632812 -11.753906 13.4375 -11.546875 C 13.25 -11.335938 13.015625 -11.207031 12.734375 -11.15625 C 12.453125 -11.101562 12.140625 -11.164062 11.796875 -11.34375 C 11.359375 -11.613281 10.90625 -11.8125 10.4375 -11.9375 C 9.976562 -12.070312 9.535156 -12.140625 9.109375 -12.140625 C 8.453125 -12.140625 7.867188 -12.03125 7.359375 -11.8125 C 6.859375 -11.601562 6.429688 -11.300781 6.078125 -10.90625 C 5.722656 -10.519531 5.457031 -10.035156 5.28125 -9.453125 C 5.101562 -8.867188 5.015625 -8.191406 5.015625 -7.421875 C 5.015625 -5.929688 5.367188 -4.757812 6.078125 -3.90625 C 6.796875 -3.050781 7.804688 -2.625 9.109375 -2.625 C 9.535156 -2.625 9.972656 -2.679688 10.421875 -2.796875 C 10.878906 -2.921875 11.335938 -3.113281 11.796875 -3.375 C 12.140625 -3.5625 12.445312 -3.625 12.71875 -3.5625 C 12.988281 -3.5 13.210938 -3.363281 13.390625 -3.15625 C 13.578125 -2.945312 13.691406 -2.695312 13.734375 -2.40625 C 13.773438 -2.113281 13.738281 -1.820312 13.625 -1.53125 C 13.519531 -1.25 13.316406 -1.019531 13.015625 -0.84375 C 12.347656 -0.4375 11.640625 -0.144531 10.890625 0.03125 C 10.148438 0.207031 9.445312 0.296875 8.78125 0.296875 Z M 8.78125 0.296875 "/></g></g></g><g fill="#ffffff" fill-opacity="1"><g transform="translate(98.545438, 47.871389)"><g><path d="M 8.6875 0.296875 C 7.164062 0.296875 5.835938 -0.0078125 4.703125 -0.625 C 3.578125 -1.25 2.703125 -2.140625 2.078125 -3.296875 C 1.453125 -4.460938 1.140625 -5.828125 1.140625 -7.390625 C 1.140625 -8.578125 1.316406 -9.640625 1.671875 -10.578125 C 2.023438 -11.515625 2.535156 -12.316406 3.203125 -12.984375 C 3.867188 -13.660156 4.660156 -14.175781 5.578125 -14.53125 C 6.503906 -14.882812 7.539062 -15.0625 8.6875 -15.0625 C 10.21875 -15.0625 11.546875 -14.75 12.671875 -14.125 C 13.804688 -13.5 14.679688 -12.613281 15.296875 -11.46875 C 15.921875 -10.320312 16.234375 -8.960938 16.234375 -7.390625 C 16.234375 -6.203125 16.054688 -5.132812 15.703125 -4.1875 C 15.359375 -3.25 14.851562 -2.441406 14.1875 -1.765625 C 13.519531 -1.085938 12.722656 -0.570312 11.796875 -0.21875 C 10.878906 0.125 9.84375 0.296875 8.6875 0.296875 Z M 8.6875 -2.5625 C 9.4375 -2.5625 10.09375 -2.742188 10.65625 -3.109375 C 11.21875 -3.472656 11.65625 -4.007812 11.96875 -4.71875 C 12.28125 -5.4375 12.4375 -6.328125 12.4375 -7.390625 C 12.4375 -9.003906 12.09375 -10.207031 11.40625 -11 C 10.726562 -11.800781 9.820312 -12.203125 8.6875 -12.203125 C 7.945312 -12.203125 7.296875 -12.023438 6.734375 -11.671875 C 6.171875 -11.316406 5.734375 -10.78125 5.421875 -10.0625 C 5.109375 -9.351562 4.953125 -8.460938 4.953125 -7.390625 C 4.953125 -5.804688 5.289062 -4.601562 5.96875 -3.78125 C 6.65625 -2.96875 7.5625 -2.5625 8.6875 -2.5625 Z M 8.6875 -2.5625 "/></g></g></g></svg>